<svg xmlns="http://www.w3.org/2000/svg" width="114.973" height="81.239" viewBox="0 0 114.973 81.239"><defs><style>.a{fill:#d3a876;stroke:rgba(0,0,0,0);stroke-miterlimit:10;}</style></defs><path class="a" d="M2163.055,79.97a3.146,3.146,0,0,1-1.011-.724,3.22,3.22,0,0,1-.65-1.048,3.464,3.464,0,0,1-.229-1.253v-.018a3.437,3.437,0,0,1,.233-1.258,3.329,3.329,0,0,1,.654-1.057,3.1,3.1,0,0,1,1.015-.726,3.37,3.37,0,0,1,2.643,0,3.1,3.1,0,0,1,1.015.722,3.229,3.229,0,0,1,.65,1.049,3.464,3.464,0,0,1,.229,1.253c.006.005.006.011,0,.018a3.442,3.442,0,0,1-.233,1.258,3.324,3.324,0,0,1-.654,1.056,3.086,3.086,0,0,1-1.02.728,3.192,3.192,0,0,1-1.322.269A3.151,3.151,0,0,1,2163.055,79.97Zm.229-5.7a2.6,2.6,0,0,0-.859.613,2.8,2.8,0,0,0-.563.91,3.069,3.069,0,0,0-.2,1.116v.018a3.057,3.057,0,0,0,.206,1.12,2.838,2.838,0,0,0,.567.914,2.677,2.677,0,0,0,.864.618,2.769,2.769,0,0,0,2.191,0,2.6,2.6,0,0,0,.86-.613,2.808,2.808,0,0,0,.563-.909,3.06,3.06,0,0,0,.2-1.117v-.018a3.053,3.053,0,0,0-.205-1.121,2.855,2.855,0,0,0-.567-.914,2.679,2.679,0,0,0-.865-.618,2.758,2.758,0,0,0-2.191,0Zm-43.759,5.707a2.944,2.944,0,0,1-1.011-.708,3.1,3.1,0,0,1-.631-1.048,3.667,3.667,0,0,1-.22-1.276v-.018a3.544,3.544,0,0,1,.224-1.249,3.257,3.257,0,0,1,.641-1.057,3.125,3.125,0,0,1,1-.731,3.009,3.009,0,0,1,1.3-.274,4.391,4.391,0,0,1,.718.054,3.047,3.047,0,0,1,.6.165,3.356,3.356,0,0,1,.531.266,4.267,4.267,0,0,1,.49.357l-.311.355a3.55,3.55,0,0,0-.856-.548,2.9,2.9,0,0,0-1.2-.22,2.486,2.486,0,0,0-1.07.229,2.623,2.623,0,0,0-.837.622,2.8,2.8,0,0,0-.544.913,3.129,3.129,0,0,0-.193,1.1v.019a3.415,3.415,0,0,0,.188,1.15,2.556,2.556,0,0,0,.544.913,2.518,2.518,0,0,0,.864.6,2.873,2.873,0,0,0,1.147.219,2.983,2.983,0,0,0,.595-.059,3.409,3.409,0,0,0,1.043-.392,2.719,2.719,0,0,0,.4-.278V77.248h-2.14v-.43h2.6V79.28a4.275,4.275,0,0,1-1.083.671,3.482,3.482,0,0,1-1.432.287A3.357,3.357,0,0,1,2119.524,79.978Zm-15.065-.008a3.165,3.165,0,0,1-1.011-.724,3.215,3.215,0,0,1-.65-1.048,3.464,3.464,0,0,1-.229-1.253v-.018a3.437,3.437,0,0,1,.233-1.258,3.364,3.364,0,0,1,.654-1.057,3.1,3.1,0,0,1,1.016-.726,3.37,3.37,0,0,1,2.643,0,3.112,3.112,0,0,1,1.014.722,3.22,3.22,0,0,1,.65,1.049,3.444,3.444,0,0,1,.229,1.253c.006.005.006.011,0,.018a3.451,3.451,0,0,1-.232,1.258,3.322,3.322,0,0,1-.655,1.056,3.086,3.086,0,0,1-1.02.728,3.191,3.191,0,0,1-1.322.269A3.152,3.152,0,0,1,2104.459,79.97Zm.229-5.7a2.607,2.607,0,0,0-.86.613,2.8,2.8,0,0,0-.562.91,3.069,3.069,0,0,0-.2,1.116v.018a3.057,3.057,0,0,0,.206,1.12,2.859,2.859,0,0,0,.567.914,2.7,2.7,0,0,0,.864.618,2.77,2.77,0,0,0,2.191,0,2.6,2.6,0,0,0,.859-.613,2.794,2.794,0,0,0,.563-.909,3.08,3.08,0,0,0,.2-1.117v-.018a3.048,3.048,0,0,0-.205-1.121,2.838,2.838,0,0,0-.567-.914,2.679,2.679,0,0,0-.865-.618,2.756,2.756,0,0,0-2.19,0Zm72.59,5.693a4.246,4.246,0,0,1-1.193-.768l.31-.357a4.578,4.578,0,0,0,.527.426,2.925,2.925,0,0,0,.535.292,3.006,3.006,0,0,0,.576.175,3.429,3.429,0,0,0,.659.059,2.162,2.162,0,0,0,.659-.1,1.547,1.547,0,0,0,.512-.265,1.2,1.2,0,0,0,.33-.4,1.1,1.1,0,0,0,.119-.507V78.5a1.261,1.261,0,0,0-.077-.459.892.892,0,0,0-.283-.365,2.061,2.061,0,0,0-.553-.3,5.691,5.691,0,0,0-.9-.243,6.21,6.21,0,0,1-.988-.278,2.507,2.507,0,0,1-.672-.375,1.3,1.3,0,0,1-.38-.5,1.678,1.678,0,0,1-.119-.649v-.02a1.452,1.452,0,0,1,.156-.662,1.684,1.684,0,0,1,.43-.535,2.04,2.04,0,0,1,.649-.357,2.535,2.535,0,0,1,.824-.128,3.4,3.4,0,0,1,1.2.192,3.648,3.648,0,0,1,.993.586l-.3.374a2.738,2.738,0,0,0-1.911-.722,2.039,2.039,0,0,0-.646.1,1.61,1.61,0,0,0-.494.261,1.149,1.149,0,0,0-.315.383,1.029,1.029,0,0,0-.11.468v.017a1.3,1.3,0,0,0,.078.463.893.893,0,0,0,.283.374,1.993,1.993,0,0,0,.572.307,6.6,6.6,0,0,0,.933.257,3.693,3.693,0,0,1,1.61.644,1.393,1.393,0,0,1,.494,1.122v.017a1.576,1.576,0,0,1-.16.709,1.656,1.656,0,0,1-.439.554,2.06,2.06,0,0,1-.668.357,2.71,2.71,0,0,1-.855.128A3.582,3.582,0,0,1,2177.278,79.964Zm-30.3.165v-6.4h2.131a3.8,3.8,0,0,1,1.377.242,3.3,3.3,0,0,1,1.079.673,2.994,2.994,0,0,1,.7,1.011,3.181,3.181,0,0,1,.248,1.258v.018a3.213,3.213,0,0,1-.248,1.263,2.994,2.994,0,0,1-.7,1.015,3.317,3.317,0,0,1-1.079.676,3.7,3.7,0,0,1-1.377.247Zm.476-.43h1.655a3.232,3.232,0,0,0,1.208-.216,2.734,2.734,0,0,0,.914-.586,2.609,2.609,0,0,0,.581-.873,2.8,2.8,0,0,0,.206-1.078v-.018a2.806,2.806,0,0,0-.206-1.074,2.643,2.643,0,0,0-.581-.881,2.746,2.746,0,0,0-.914-.6,3.214,3.214,0,0,0-1.208-.22h-1.655Zm-9.669.43-.813-1.793h-3.778l-.813,1.793h-.494l2.982-6.448h.457l2.982,6.448Zm-4.39-2.223h3.375l-1.683-3.7Zm-44.464,2.223v-6.4h2.638a3.059,3.059,0,0,1,.85.111,1.962,1.962,0,0,1,.653.316,1.476,1.476,0,0,1,.42.5,1.414,1.414,0,0,1,.15.651v.018a1.616,1.616,0,0,1-.1.578,1.505,1.505,0,0,1-.251.431,1.488,1.488,0,0,1-.352.306,2.8,2.8,0,0,1-.387.207,3.186,3.186,0,0,1,.547.2,1.742,1.742,0,0,1,.461.311,1.465,1.465,0,0,1,.315.438,1.337,1.337,0,0,1,.119.58v.019a1.592,1.592,0,0,1-.164.725,1.573,1.573,0,0,1-.465.548,2.33,2.33,0,0,1-.722.347,3.348,3.348,0,0,1-.94.122Zm.475-.43h2.323a2.173,2.173,0,0,0,1.309-.353,1.127,1.127,0,0,0,.485-.959v-.019a1.04,1.04,0,0,0-.5-.923,2.671,2.671,0,0,0-1.45-.326h-2.168Zm0-3.009h2.114a2.354,2.354,0,0,0,.658-.088,1.6,1.6,0,0,0,.521-.252,1.18,1.18,0,0,0,.344-.417,1.279,1.279,0,0,0,.123-.571v-.019a1.051,1.051,0,0,0-.41-.861,1.881,1.881,0,0,0-1.19-.327h-2.159Zm-9.668,3.439-.814-1.793h-3.777l-.814,1.793h-.493l2.982-6.448h.457l2.983,6.448Zm-4.39-2.223h3.375l-1.683-3.7Zm76.287-29.371a6.364,6.364,0,0,1-1.646-.131c0-.013,0-.038,0-.074,0-.222.02-.276.613-.635a3.814,3.814,0,0,0,2.125-3.759V4.746c0-3.088-1.216-3.907-2.355-4.434-.055-.025-.121-.056-.179-.085A2.873,2.873,0,0,1,2151.636,0h8.069c1.261,0,1.616.123,1.715.2-.077.067-.222.167-.334.245a4.2,4.2,0,0,0-2.039,3.938V40.549c0,2.372,1.276,2.676,2.388,2.676h21.272a6.478,6.478,0,0,0,3.377-.927,2.248,2.248,0,0,1,.715-.309.331.331,0,0,1,.131.033,2.12,2.12,0,0,1-.2,1.123l-3.024,4.827c-.347.563-.537.563-1,.563Zm-75.755,0c-2.039,0-2.493-.247-2.582-.393,0-.2,0-.229.49-.552,1.1-.727,2.174-1.674,2.174-4.519V4.746a3.924,3.924,0,0,0-2.432-4,2.594,2.594,0,0,1-.532-.32.539.539,0,0,1,.038-.208c.093-.1.514-.22,1.979-.22h21.613c8.353,0,13.75,4.774,13.75,12.164a10.083,10.083,0,0,1-3.406,8.064,1.724,1.724,0,0,0-.659,1.547,1.649,1.649,0,0,0,1.025,1.268c1.047.47,6.282,3.232,6.282,11.382,0,6.821-3.536,14.109-13.462,14.109Zm6.33-20.161-.072,12.314c0,.873,0,2.68,2.46,2.68h13.831c5.35,0,8.943-3.594,8.943-8.942,0-5.179-3.6-8.15-9.88-8.15h-13.039A2,2,0,0,0,2082.211,28.374Zm.216-20.461-.145,10.507a2.3,2.3,0,0,0,2.531,2.615h12.176c3.5,0,7.284-3.089,7.284-8.078,0-4.486-3.073-7.5-7.646-7.5H2085.1C2083.327,5.456,2082.427,6.283,2082.427,7.914Zm44.98,14.232a3.039,3.039,0,1,1,3.038,3.038A3.038,3.038,0,0,1,2127.407,22.145Z" transform="translate(-2072.489 0.5)"/></svg>