<svg xmlns="http://www.w3.org/2000/svg" width="196.099" height="38.897" viewBox="0 0 196.099 38.897"><defs><style>.a{fill:#d3a876;stroke:rgba(0,0,0,0);stroke-miterlimit:10;}</style></defs><path class="a" d="M2206.13,37.682a2.48,2.48,0,0,1-.8-.573,2.538,2.538,0,0,1-.516-.832,2.738,2.738,0,0,1-.182-.995v-.014a2.706,2.706,0,0,1,.185-1,2.646,2.646,0,0,1,.519-.839,2.469,2.469,0,0,1,.806-.577,2.552,2.552,0,0,1,2.9.573,2.553,2.553,0,0,1,.516.832,2.757,2.757,0,0,1,.182.995.009.009,0,0,1,0,.014,2.724,2.724,0,0,1-.186,1,2.621,2.621,0,0,1-.519.839,2.439,2.439,0,0,1-.809.577,2.52,2.52,0,0,1-1.049.215A2.489,2.489,0,0,1,2206.13,37.682Zm.181-4.523a2.114,2.114,0,0,0-.682.487,2.227,2.227,0,0,0-.446.723,2.424,2.424,0,0,0-.16.886v.014a2.416,2.416,0,0,0,.164.889,2.271,2.271,0,0,0,.45.726,2.108,2.108,0,0,0,.687.49,2.066,2.066,0,0,0,.87.182,2.088,2.088,0,0,0,1.551-.664,2.248,2.248,0,0,0,.446-.723,2.44,2.44,0,0,0,.159-.886v-.014a2.416,2.416,0,0,0-.163-.889,2.255,2.255,0,0,0-.451-.726,2.109,2.109,0,0,0-.685-.49,2.077,2.077,0,0,0-.872-.183A2.1,2.1,0,0,0,2206.311,33.159Zm-43.446,4.531a2.324,2.324,0,0,1-.8-.562,2.465,2.465,0,0,1-.5-.831,2.926,2.926,0,0,1-.175-1.013v-.014a2.8,2.8,0,0,1,.178-.991,2.573,2.573,0,0,1,.508-.839,2.49,2.49,0,0,1,.795-.581,2.392,2.392,0,0,1,1.031-.218,3.462,3.462,0,0,1,.57.043,2.35,2.35,0,0,1,.479.131,2.565,2.565,0,0,1,.421.211,3.216,3.216,0,0,1,.389.283l-.247.283a2.8,2.8,0,0,0-.679-.436,2.3,2.3,0,0,0-.955-.175,1.976,1.976,0,0,0-.85.182,2.058,2.058,0,0,0-.664.493,2.229,2.229,0,0,0-.432.724,2.492,2.492,0,0,0-.152.87v.014a2.731,2.731,0,0,0,.148.913,2.064,2.064,0,0,0,.433.725,2,2,0,0,0,.686.479,2.275,2.275,0,0,0,.911.174,2.35,2.35,0,0,0,.472-.047,2.745,2.745,0,0,0,.44-.127,2.7,2.7,0,0,0,.388-.184,2.2,2.2,0,0,0,.32-.221V35.522h-1.7v-.341h2.063v1.955a3.41,3.41,0,0,1-.86.533,2.764,2.764,0,0,1-1.137.229A2.678,2.678,0,0,1,2162.866,37.689ZM2148,37.682a2.492,2.492,0,0,1-.8-.573,2.547,2.547,0,0,1-.515-.832,2.738,2.738,0,0,1-.182-.995v-.014a2.706,2.706,0,0,1,.185-1,2.65,2.65,0,0,1,.518-.839,2.474,2.474,0,0,1,.806-.577,2.555,2.555,0,0,1,2.9.573,2.547,2.547,0,0,1,.515.832,2.736,2.736,0,0,1,.182.995.009.009,0,0,1,0,.014,2.709,2.709,0,0,1-.186,1,2.64,2.64,0,0,1-.518.839,2.453,2.453,0,0,1-.81.577,2.52,2.52,0,0,1-1.049.215A2.488,2.488,0,0,1,2148,37.682Zm.181-4.523a2.111,2.111,0,0,0-.682.487,2.228,2.228,0,0,0-.447.723,2.443,2.443,0,0,0-.159.886v.014a2.416,2.416,0,0,0,.163.889,2.274,2.274,0,0,0,.45.726,2.122,2.122,0,0,0,.687.49,2.068,2.068,0,0,0,.87.182,2.084,2.084,0,0,0,1.551-.664,2.244,2.244,0,0,0,.447-.723,2.44,2.44,0,0,0,.159-.886v-.014a2.416,2.416,0,0,0-.163-.889,2.27,2.27,0,0,0-.45-.726,2.126,2.126,0,0,0-.686-.49,2.077,2.077,0,0,0-.872-.183A2.107,2.107,0,0,0,2148.185,33.159Zm72.14,4.52a3.376,3.376,0,0,1-.948-.61l.247-.283a3.658,3.658,0,0,0,.418.337,2.3,2.3,0,0,0,.424.232,2.416,2.416,0,0,0,.458.138,2.628,2.628,0,0,0,.523.048,1.756,1.756,0,0,0,.522-.076,1.243,1.243,0,0,0,.407-.212.968.968,0,0,0,.261-.319.872.872,0,0,0,.094-.4v-.014a1.016,1.016,0,0,0-.061-.364.694.694,0,0,0-.225-.29,1.641,1.641,0,0,0-.439-.237,4.606,4.606,0,0,0-.712-.193,4.764,4.764,0,0,1-.784-.221,1.943,1.943,0,0,1-.534-.3,1.024,1.024,0,0,1-.3-.4,1.32,1.32,0,0,1-.094-.515V33.99a1.152,1.152,0,0,1,.123-.526,1.345,1.345,0,0,1,.342-.425,1.6,1.6,0,0,1,.515-.283,2,2,0,0,1,.654-.1,2.715,2.715,0,0,1,.955.152,2.868,2.868,0,0,1,.788.465l-.24.3A2.181,2.181,0,0,0,2221.2,33a1.608,1.608,0,0,0-.513.076,1.245,1.245,0,0,0-.391.207.9.9,0,0,0-.25.3.81.81,0,0,0-.087.371v.014a1.02,1.02,0,0,0,.061.366.715.715,0,0,0,.225.3,1.6,1.6,0,0,0,.454.243,5.188,5.188,0,0,0,.741.2,2.932,2.932,0,0,1,1.278.512,1.1,1.1,0,0,1,.392.889V36.5a1.25,1.25,0,0,1-.127.562,1.319,1.319,0,0,1-.349.44,1.633,1.633,0,0,1-.529.283,2.176,2.176,0,0,1-.68.1A2.84,2.84,0,0,1,2220.324,37.679Zm-29.858.131V32.727h1.692a3.012,3.012,0,0,1,1.092.193,2.574,2.574,0,0,1,.857.534,2.368,2.368,0,0,1,.555.8,2.518,2.518,0,0,1,.2,1v.014a2.537,2.537,0,0,1-.2,1,2.36,2.36,0,0,1-.555.806,2.656,2.656,0,0,1-.857.537,2.956,2.956,0,0,1-1.092.2Zm.377-.341h1.315a2.555,2.555,0,0,0,.958-.171,2.135,2.135,0,0,0,.726-.466,2.1,2.1,0,0,0,.462-.692,2.241,2.241,0,0,0,.163-.856v-.014a2.249,2.249,0,0,0-.163-.852,2.1,2.1,0,0,0-1.188-1.173,2.5,2.5,0,0,0-.958-.175h-1.315Zm-10.578.341-.646-1.423h-3l-.646,1.423h-.391l2.366-5.118h.364l2.367,5.118Zm-3.485-1.764h2.678l-1.336-2.94Zm-44.005,1.764V32.727h2.094a2.453,2.453,0,0,1,.673.087,1.533,1.533,0,0,1,.519.252,1.161,1.161,0,0,1,.334.4,1.124,1.124,0,0,1,.12.517v.014a1.269,1.269,0,0,1-.077.458,1.194,1.194,0,0,1-.2.342,1.237,1.237,0,0,1-.279.244,2.385,2.385,0,0,1-.308.164,2.51,2.51,0,0,1,.435.156,1.311,1.311,0,0,1,.365.247,1.141,1.141,0,0,1,.251.347,1.063,1.063,0,0,1,.094.46v.014a1.261,1.261,0,0,1-.13.576,1.224,1.224,0,0,1-.369.436,1.835,1.835,0,0,1-.573.275,2.662,2.662,0,0,1-.746.1Zm.377-.341H2135a1.724,1.724,0,0,0,1.038-.281.892.892,0,0,0,.385-.761v-.014a.825.825,0,0,0-.4-.732,2.108,2.108,0,0,0-1.151-.258h-1.721Zm0-2.389h1.678a1.888,1.888,0,0,0,.523-.069,1.255,1.255,0,0,0,.414-.2.93.93,0,0,0,.272-.329,1,1,0,0,0,.1-.454v-.014a.832.832,0,0,0-.327-.684,1.488,1.488,0,0,0-.943-.26h-1.715Zm-10.578,2.73-.646-1.423h-3l-.647,1.423h-.392l2.367-5.118h.364l2.367,5.118Zm-3.486-1.764h2.679l-1.336-2.94Zm62.138-17.279a6.921,6.921,0,0,1-7.03-7.253,7,7,0,0,1,7.229-7.378h.044a6.97,6.97,0,0,1,7.068,7.378,6.914,6.914,0,0,1-7.179,7.254Zm-5.125-7.253a5.25,5.25,0,0,0,5.2,5.639h.091a5.262,5.262,0,0,0,3.649-1.419,5.646,5.646,0,0,0,1.655-4.22c0-3.916-2.717-5.722-5.242-5.743h-.046C2178.852,5.769,2176.1,7.566,2176.1,11.513Zm-80.052,7.253a6.92,6.92,0,0,1-7.029-7.253,7,7,0,0,1,7.228-7.378h.044a6.97,6.97,0,0,1,7.068,7.378,6.914,6.914,0,0,1-7.178,7.254Zm-5.124-7.253a5.249,5.249,0,0,0,5.2,5.639h.09a5.261,5.261,0,0,0,3.649-1.419,5.646,5.646,0,0,0,1.655-4.22c0-3.916-2.716-5.722-5.241-5.743h-.046C2093.676,5.769,2090.926,7.566,2090.926,11.513Zm65.616-.063a6.92,6.92,0,0,1,7.149-7.315,8.091,8.091,0,0,1,4.873,1.436c.067.046.118.081.154.1a1.58,1.58,0,0,0,.819.263,1.693,1.693,0,0,0,.249-.022.855.855,0,0,1,.113-.013.132.132,0,0,1,.075.021,1.57,1.57,0,0,1-.184.351l-.916,1.374c-.184.294-.267.327-.276.329a.321.321,0,0,0-.012-.095,1.609,1.609,0,0,0-.818-1.085,6.148,6.148,0,0,0-4.076-1.154,5.453,5.453,0,0,0-5.327,5.806c0,3.825,2.691,5.827,5.349,5.827a4.7,4.7,0,0,0,4.026-1.886,1.135,1.135,0,0,0,.137-.634V13.3c0-.855-.277-1.079-.535-1.222l-.025-.014a.2.2,0,0,1,.006-.059,3.133,3.133,0,0,1,.342-.011h2.1a1.006,1.006,0,0,1,.308.029.184.184,0,0,0,0,.032l-.031.017c-.237.136-.49.344-.49,1.084v2.35a.932.932,0,0,1-.044.354c-.28.737-1.95,2.845-5.817,2.845C2158.779,18.7,2156.542,14.944,2156.542,11.45Zm79.235,7.138-6.818-13.117a2.023,2.023,0,0,0-.737-.808c-.145-.1-.145-.1-.145-.138s0-.079.142-.079h2.682a2.1,2.1,0,0,1,.43.023c0,.008,0,.033,0,.077-.009.025-.054.052-.084.07-.408.24-.459.571-.171,1.108l4.282,8.149c.07.114.251.4.551.4a.531.531,0,0,0,.462-.3l3.128-6a3.6,3.6,0,0,0,.4-2.319,1.194,1.194,0,0,0-.679-1.014c-.149-.085-.149-.089-.149-.15a.226.226,0,0,1,0-.028,1.308,1.308,0,0,1,.2-.01h2.6a.929.929,0,0,1,.287.031c0,.067-.011.074-.063.115-.232.186-.354.4-.288.965a5.9,5.9,0,0,1-.8,3.211l-5.058,9.845a.093.093,0,0,1-.075.025A.128.128,0,0,1,2235.777,18.588Zm-94.209-.191a.84.84,0,0,1,.192-.128,1.182,1.182,0,0,0,.7-1.142l-.021-11.189c0-.89-.334-1.143-.676-1.325-.123-.067-.149-.08-.155-.139a1.637,1.637,0,0,1,.436-.036c.093,0,.189,0,.287,0s.209,0,.312,0h9.96c.225,0,.225.044.225.162v1.56c0,.3-.031.434-.1.434l-.059-.088a1.306,1.306,0,0,0-1.273-.6h-6.488a.65.65,0,0,0-.689.711v3.1c0,.434.092.877.773.877h4.242a1.09,1.09,0,0,0,.94-.48c.021-.026.049-.06.067-.08a.084.084,0,0,1,.021,0,1.473,1.473,0,0,1,.049.49v1.684c0,.345-.045.427-.095.447-.021-.024-.048-.06-.069-.088a1.094,1.094,0,0,0-.914-.529h-4.117a.909.909,0,0,0-.693.248.724.724,0,0,0-.183.565V16.15c0,.794.575.794.918.794h6.405a1.038,1.038,0,0,0,1.1-.621.733.733,0,0,1,.059-.106h.026a.122.122,0,0,1,.049.006,1.581,1.581,0,0,1,.031.427v1.623a.387.387,0,0,1-.018.139l-.041,0h-10.709l-.094,0c-.043,0-.095,0-.149,0A1.221,1.221,0,0,1,2141.568,18.4Zm115.411.015h-2.434a2.457,2.457,0,0,1-.473-.027c.007-.034.034-.059.155-.141a1.353,1.353,0,0,0,.634-1.376V5.939a1.46,1.46,0,0,0-.624-1.381.782.782,0,0,1-.1-.078,3.614,3.614,0,0,1,.637-.034h1.476c.293,0,.308.094.308.246V6.147a1.08,1.08,0,0,0,.43.886l.073.072,7.439,6.4a.708.708,0,0,0,.477.216c.088,0,.53-.035.53-.73V6.272c0-1.1-.321-1.422-.648-1.653a.512.512,0,0,1-.1-.076.11.11,0,0,1,0-.039.016.016,0,0,0,0-.008,4.209,4.209,0,0,1,.933-.05h1.414a2.624,2.624,0,0,1,.895.093.283.283,0,0,1-.007.038.634.634,0,0,1-.1.074c-.327.216-.645.51-.645,1.5v10.98a1.131,1.131,0,0,0,.492.986c.144.116.173.148.173.241-.046.059-.259.059-.35.059h-1.955c-.04,0-.1,0-.1-.2v-1.1a1.577,1.577,0,0,0-.523-1.02l-7.3-6.193a.9.9,0,0,0-.558-.248c-.092,0-.552.036-.552.743v6.53a1.3,1.3,0,0,0,.72,1.354c.145.079.153.088.154.133a1.642,1.642,0,0,1-.186.007Zm-10.668,0a1.476,1.476,0,0,1-.432-.04.294.294,0,0,0,0-.041c.009-.006.081-.069.134-.116a1.558,1.558,0,0,0,.614-1.3V5.814a1.457,1.457,0,0,0-.515-1.269c-.025-.022-.057-.049-.075-.069a1.363,1.363,0,0,1,.337-.03h2.288l.176,0a.919.919,0,0,1,.209.019L2249,4.49a1.4,1.4,0,0,0-.659,1.324v11.1a1.513,1.513,0,0,0,.613,1.324,1.114,1.114,0,0,1,.133.123,1.42,1.42,0,0,1-.43.047Zm-21.607,0a1.505,1.505,0,0,1-.39-.029c0-.007,0-.017,0-.03,0-.111.027-.132.156-.217a.692.692,0,0,0,.305-.942l-.375-1.041a.748.748,0,0,0-.818-.527h-5.032a.855.855,0,0,0-.831.464l-.011.023-.193.752c-.194.751-.078,1.02.2,1.253.079.066.1.084.1.235a1.626,1.626,0,0,1-.619.059h-2.35c-.287,0-.287-.06-.287-.1,0-.058,0-.072.2-.191a1.649,1.649,0,0,0,.806-.962l3.951-11.394a.955.955,0,0,0-.186-1.076c-.076-.087-.089-.108-.089-.142a.149.149,0,0,1,.01-.068s.037-.033.194-.033h3.056a.4.4,0,0,1,.217.035.208.208,0,0,1,.008.066c0,.044-.019.069-.128.166a.823.823,0,0,0-.246,1.067l4.449,11.5a1.651,1.651,0,0,0,.722.859c.174.113.174.124.174.178a.207.207,0,0,1-.008.073,2.636,2.636,0,0,1-.487.027Zm-4.209-10.861-2.016,5.841a.567.567,0,0,0,.052.538.593.593,0,0,0,.517.227h3.91a.523.523,0,0,0,.444-.216.694.694,0,0,0,.042-.637l-2.058-5.738a.491.491,0,0,0-.452-.363A.474.474,0,0,0,2220.494,7.551Zm-18.851,10.861a2.133,2.133,0,0,1-.452-.031c0-.062.012-.079.164-.172a1.133,1.133,0,0,0,.625-1.1V5.794c0-.98-.451-1.188-.692-1.3l-.014-.006a1.187,1.187,0,0,1,.37-.042h2.329a1.524,1.524,0,0,1,.455.041c-.021.016-.047.034-.069.049a1.23,1.23,0,0,0-.6,1.154V16.129c0,.711.406.794.711.794h5.594a1.906,1.906,0,0,0,.985-.271.667.667,0,0,1,.2-.085l.018,0a.608.608,0,0,1-.057.3l-.873,1.393c-.095.153-.142.153-.27.153Zm-67.044,0a3.362,3.362,0,0,1-.722-.044c.008-.072.046-.108.159-.2a.854.854,0,0,0,.252-1.177l-1.5-3.515c-.211-.512-.5-.6-1.124-.6h-3.947c-.517,0-.778.351-.778,1.044v3.182a1.181,1.181,0,0,0,.582,1.091c.148.105.165.127.167.167a1.128,1.128,0,0,1-.412.048h-2.62a.565.565,0,0,1-.239-.029c.014-.039.075-.1.205-.2a1.34,1.34,0,0,0,.579-1.114v-11a1.473,1.473,0,0,0-.664-1.454.468.468,0,0,1-.12-.093,2.9,2.9,0,0,1,.863-.071h6.3c2.261,0,4.9,1.165,4.9,4.447a4.468,4.468,0,0,1-1.8,3.392.7.7,0,0,0-.318.963l1.746,4.18a1.38,1.38,0,0,0,.639.666c.223.133.254.167.254.281a1.089,1.089,0,0,1-.392.038ZM2126.943,6.98l.021,3.619c0,.185.072.793,1,.793h3.91a2.586,2.586,0,0,0,2.769-2.5c0-1.827-1.087-2.832-3.06-2.832h-3.7A.823.823,0,0,0,2126.943,6.98Zm-9.479,11.433a3.37,3.37,0,0,1-.722-.044c.008-.072.046-.108.159-.2a.855.855,0,0,0,.252-1.177l-1.5-3.515c-.211-.512-.5-.6-1.124-.6h-3.947c-.516,0-.778.351-.778,1.044v3.182a1.181,1.181,0,0,0,.583,1.091c.148.105.164.127.166.167a1.126,1.126,0,0,1-.412.048h-2.62a.574.574,0,0,1-.24-.029c.015-.039.076-.1.206-.2a1.34,1.34,0,0,0,.579-1.114v-11a1.472,1.472,0,0,0-.664-1.454.472.472,0,0,1-.12-.093,2.91,2.91,0,0,1,.863-.071h6.3c2.262,0,4.9,1.165,4.9,4.447a4.468,4.468,0,0,1-1.8,3.392.7.7,0,0,0-.318.963l1.746,4.18a1.384,1.384,0,0,0,.639.666c.223.133.254.167.254.281a1.09,1.09,0,0,1-.391.038ZM2109.808,6.98l.021,3.619c0,.185.072.793,1,.793h3.909a2.586,2.586,0,0,0,2.769-2.5c0-1.827-1.086-2.832-3.06-2.832h-3.7A.824.824,0,0,0,2109.808,6.98Zm-35.993,11.433c-.532,0-.689-.057-.728-.1,0-.037,0-.042.136-.129a1.341,1.341,0,0,0,.637-1.322V5.794a1.152,1.152,0,0,0-.714-1.174.892.892,0,0,1-.147-.086c.008-.024.013-.036.013-.037a1.545,1.545,0,0,1,.553-.051h6.238c2.4,0,3.948,1.37,3.948,3.489a2.887,2.887,0,0,1-.976,2.311.522.522,0,0,0-.2.467.5.5,0,0,0,.309.382,3.36,3.36,0,0,1,1.8,3.266c0,1.958-1.015,4.051-3.865,4.051Zm1.805-5.8-.021,3.554c0,.259,0,.8.731.8h3.993a2.464,2.464,0,0,0,2.6-2.6c0-1.508-1.048-2.374-2.874-2.374h-3.764A.6.6,0,0,0,2075.621,12.614Zm.062-5.906-.041,3.032a.684.684,0,0,0,.752.778h3.515a2.247,2.247,0,0,0,2.125-2.353,2.091,2.091,0,0,0-2.229-2.188h-3.327C2075.95,5.977,2075.683,6.224,2075.683,6.709ZM2247.01,1.1c.5-1.178.5-1.1,1.216-1.1,1.46,0,1.31.057.748,1.365-.542,1.254-.542,1.254-1.291,1.254C2246.356,2.62,2246.356,2.62,2247.01,1.1Z" transform="translate(-2072.433 0.5)"/></svg>