<svg xmlns="http://www.w3.org/2000/svg" xmlns:xlink="http://www.w3.org/1999/xlink" width="55.76" height="49.816" viewBox="0 0 55.76 49.816"><defs><style>.a{fill:none;}.b{clip-path:url(#a);}.c{fill:#ead1b5;}</style><clipPath id="a"><path class="a" d="M0,33.648H55.76V-16.168H0Z" transform="translate(0 16.168)"/></clipPath></defs><g transform="translate(55.76 33.648) rotate(180)"><g class="b" transform="translate(0 -16.168)"><g transform="translate(-0.001 0)"><path class="c" d="M22.676,17.477A53.274,53.274,0,0,1,27.763,6.813a51.736,51.736,0,0,1,7.45-9.425,22.338,22.338,0,0,1,9.148-5.756c.253-.12.407.123.468.752s.037.952-.092.952a13.594,13.594,0,0,0-3.392,1.5A13.931,13.931,0,0,0,38.89-3.272Q31.73,2.76,31.723,9.176c0,4.388,2.265,8.3,6.791,11.693a15.274,15.274,0,0,1,2.924,3.67,10.228,10.228,0,0,1,1.411,5.386,11.41,11.41,0,0,1-3.207,8.1A10.064,10.064,0,0,1,32.1,41.421q-5.652,0-8.486-3.778T20.788,27.084a29.933,29.933,0,0,1,1.889-9.607m-31.776,0A48.969,48.969,0,0,1-4.105,6.813,51.751,51.751,0,0,1,3.348-2.612a22.289,22.289,0,0,1,9.139-5.756c.259-.12.413.123.474.752s.031.952-.092.952a13.79,13.79,0,0,0-3.4,1.5,13.98,13.98,0,0,0-2.45,1.889Q-.147,2.76-.146,9.176c0,4.388,2.265,8.3,6.791,11.693a12,12,0,0,1,3.016,3.67,10.782,10.782,0,0,1,1.319,5.386,11.41,11.41,0,0,1-3.207,8.1A10.064,10.064,0,0,1,.23,41.421q-5.468,0-8.295-3.778T-10.9,27.084a31.293,31.293,0,0,1,1.8-9.607" transform="translate(10.896 8.398)"/></g></g></g></svg>