<?xml version="1.0"?>
<svg xmlns="http://www.w3.org/2000/svg" xmlns:xlink="http://www.w3.org/1999/xlink" xmlns:svgjs="http://svgjs.com/svgjs" version="1.1" width="512" height="512" x="0" y="0" viewBox="0 0 860.00001 860.00001" style="enable-background:new 0 0 512 512" xml:space="preserve" class=""><g><path xmlns="http://www.w3.org/2000/svg" d="m403.207031 806.332031c-222.285156 0-403.1249998-180.839843-403.1249998-403.125 0-222.285156 180.8398438-403.1249998 403.1249998-403.1249998 222.285157 0 403.125 180.8398438 403.125 403.1249998 0 222.285157-180.839843 403.125-403.125 403.125zm0-779.375c-207.464843 0-376.25 168.785157-376.25 376.25 0 207.46875 168.785157 376.25 376.25 376.25 207.46875 0 376.25-168.78125 376.25-376.25 0-207.464843-168.78125-376.25-376.25-376.25zm0 0" fill="#ffffff" data-original="#000000" style="" class=""/><path xmlns="http://www.w3.org/2000/svg" d="m403.207031 537.582031c-3.4375 0-6.875-1.3125-9.5-3.933593l-201.5625-201.5625c-5.25-5.25-5.25-13.753907 0-19.003907s13.753907-5.25 19.003907 0l192.058593 192.058594 192.0625-192.058594c5.25-5.25 13.753907-5.25 19.003907 0s5.25 13.753907 0 19.003907l-201.5625 201.5625c-2.628907 2.621093-6.066407 3.933593-9.503907 3.933593zm0 0" fill="#ffffff" data-original="#000000" style="" class=""/></g></svg>
